<svg xmlns="http://www.w3.org/2000/svg" viewBox="0 0 500 500"><g id="freepik--background-complete--inject-42"><path d="M368.73,226.41l9.69,6,1.84-3a2.71,2.71,0,0,1,2.56-1.26c.56,0,1.13.06,1.7.05a2.69,2.69,0,0,1,2.46,1.42l1.66,3.07,10.06-5.39L397,224.27a2.7,2.7,0,0,1,.19-2.83c.32-.47.62-1,.9-1.45a2.69,2.69,0,0,1,2.46-1.43l3.49.11.35-11.41-3.5-.1a2.71,2.71,0,0,1-2.36-1.59c-.12-.26-.25-.51-.38-.75s-.27-.5-.42-.73a2.71,2.71,0,0,1,0-2.84l1.86-3-9.7-6-1.85,3a2.71,2.71,0,0,1-2.55,1.26,16.1,16.1,0,0,0-1.7-.06,2.71,2.71,0,0,1-2.46-1.41l-1.65-3.08-10.06,5.39,1.65,3.08a2.72,2.72,0,0,1-.18,2.83,14.45,14.45,0,0,0-.89,1.45,2.73,2.73,0,0,1-2.46,1.43l-3.5-.11-.36,11.41,3.5.11a2.69,2.69,0,0,1,2.35,1.58c.12.26.25.51.39.76s.27.49.41.73a2.73,2.73,0,0,1,0,2.85Zm7.2-9.66a9.34,9.34,0,1,1,12.65,3.83A9.34,9.34,0,0,1,375.93,216.75Z" style="fill:#ebebeb"></path><path d="M408.78,190.93l4,6.93,2.12-1.23a1.9,1.9,0,0,1,2,.07,10.62,10.62,0,0,0,1,.6A1.9,1.9,0,0,1,419,199v2.44h8V199a1.89,1.89,0,0,1,1-1.69,9.69,9.69,0,0,0,1-.6,1.9,1.9,0,0,1,2-.07l2.12,1.23,4-6.93L435,189.71a1.89,1.89,0,0,1-.93-1.77c0-.19,0-.39,0-.59s0-.39,0-.58A1.89,1.89,0,0,1,435,185l2.14-1.23-4-6.93-2.12,1.23a1.92,1.92,0,0,1-2-.07,9.55,9.55,0,0,0-1-.6,1.89,1.89,0,0,1-1-1.69v-2.44h-8v2.44a1.91,1.91,0,0,1-1.05,1.69,9.55,9.55,0,0,0-1,.6,1.92,1.92,0,0,1-2,.07l-2.12-1.23-4,6.93,2.13,1.22a1.93,1.93,0,0,1,.93,1.76c0,.2,0,.4,0,.59s0,.4,0,.59a1.92,1.92,0,0,1-.94,1.77Zm7.65-3.58a6.55,6.55,0,1,1,6.54,6.56A6.54,6.54,0,0,1,416.43,187.35Z" style="fill:#ebebeb"></path><path d="M113.73,95.11,121,107.78l3.88-2.24a3.48,3.48,0,0,1,3.65.12,19.79,19.79,0,0,0,1.89,1.1,3.48,3.48,0,0,1,1.93,3.09v4.48H147v-4.48a3.48,3.48,0,0,1,1.93-3.09,19.79,19.79,0,0,0,1.89-1.1,3.48,3.48,0,0,1,3.65-.12l3.88,2.24,7.31-12.67-3.9-2.24a3.48,3.48,0,0,1-1.7-3.23c0-.36,0-.72,0-1.08s0-.72,0-1.07a3.47,3.47,0,0,1,1.69-3.22L165.68,82l-7.31-12.67-3.89,2.25a3.5,3.5,0,0,1-3.65-.13,19.7,19.7,0,0,0-1.89-1.09A3.48,3.48,0,0,1,147,67.28V62.8H132.39v4.48a3.48,3.48,0,0,1-1.92,3.09,19.7,19.7,0,0,0-1.89,1.09,3.5,3.5,0,0,1-3.65.13L121,69.34,113.73,82l3.89,2.25a3.47,3.47,0,0,1,1.7,3.22q0,.54,0,1.08t0,1.08a3.48,3.48,0,0,1-1.7,3.23Zm14-6.55a12,12,0,1,1,12,12A12,12,0,0,1,127.72,88.56Z" style="fill:#ebebeb"></path><path d="M382,115a32.92,32.92,0,1,1-32.56-37.75v32.92Z" style="fill:#ebebeb"></path><path d="M389.09,103.46a31.89,31.89,0,0,1-.36,4.82l-32.56-4.82V70.54a32.9,32.9,0,0,1,32.92,32.92Z" style="fill:#dbdbdb"></path><rect x="366.17" y="127.98" width="35.01" height="0.83" style="fill:#c7c7c7"></rect><path d="M403.63,131.26a2.87,2.87,0,1,1,2.87-2.87A2.88,2.88,0,0,1,403.63,131.26Zm0-4.91a2,2,0,1,0,2,2A2,2,0,0,0,403.63,126.35Z" style="fill:#c7c7c7"></path><rect x="412.53" y="126.55" width="27.19" height="1.23" style="fill:#c7c7c7"></rect><rect x="412.53" y="129" width="15.39" height="1.23" style="fill:#c7c7c7"></rect><path d="M168.59,280.39S144.46,277,150.1,247.88C150.1,247.88,177.07,253.93,168.59,280.39Z" style="fill:#ebebeb"></path><path d="M167.37,274.31a45.44,45.44,0,0,0-1.64-4.34l-.06-.55c0-.4-.07-.81-.1-1.21-.07-.87-.12-1.74-.17-2.61-.11-1.74-.22-3.48-.25-5.22a.07.07,0,1,0-.14,0c0,1.75,0,3.49,0,5.23q.06,1.31.15,2.61c0,.2,0,.39,0,.58a51.4,51.4,0,0,0-4.84-8.27c-.83-1.16-1.7-2.28-2.64-3.35s-2-2.15-3-3.24c-.06-.07-.17,0-.1.11a43.81,43.81,0,0,1,4.65,6.18c.73,1.11,1.42,2.25,2.08,3.41l-.22-.09-.86-.35-2-.74L154.48,261c-.07,0-.13.11,0,.14,1.28.51,2.55,1.05,3.82,1.6l1.87.8c.31.14.63.26.94.39a3.07,3.07,0,0,0,.64.23c.49.87,1,1.75,1.42,2.64a65.4,65.4,0,0,1,2.95,7c.05.16.11.33.17.5a13.85,13.85,0,0,0-2-1l-2.5-1.14c-1.69-.77-3.37-1.56-5-2.48-.08,0-.16.09-.07.13,1.66.91,3.28,1.87,4.94,2.77.83.45,1.67.89,2.52,1.3a7.77,7.77,0,0,0,2.26.91,28.78,28.78,0,0,1,1.59,6.85c.26,3.29.23,6.61.31,9.91,0,.06.08.06.09,0,.24-3,.37-6,.39-9A26.22,26.22,0,0,0,167.37,274.31Z" style="fill:#c7c7c7"></path><path d="M163.66,257.18a28.41,28.41,0,0,0-.24,5.13,0,0,0,1,0,.07,0c.1-1.7.11-3.4.31-5.1C163.81,257.12,163.67,257.08,163.66,257.18Z" style="fill:#c7c7c7"></path><path d="M156.76,258.64a18.6,18.6,0,0,1-3.1-1.53c-.08-.05-.16.08-.08.13a11.93,11.93,0,0,0,3.14,1.5C156.78,258.75,156.82,258.66,156.76,258.64Z" style="fill:#c7c7c7"></path><path d="M169.36,326.64c0-2.67-.07-5.33-.1-8,0-8.86-.12-17.71-.28-26.57q-.18-10.54-.49-21.09a.11.11,0,0,0-.06-.09l0-5.76c0-.05-.06-.07-.12-.07s-.11,0-.11.08c0,1.92,0,3.84,0,5.77a.09.09,0,0,0,0,.08c-.36,12.51-.67,25-.75,37.54,0,2.55,0,5.09,0,7.64q-.13,12.24-.1,24.48l0,3.89c0,7.47.08,14.93.08,22.4,0,.4.45.6.93.62s1.11-.19,1.11-.65c0-8.24.06-16.47.06-24.7C169.38,337,169.4,331.83,169.36,326.64Z" style="fill:#c7c7c7"></path><path d="M163.49,321.72s-6-13.16-18.41-13.45-24.86,18.45-24.86,18.45,13,9.89,26.62,6.38C160,329.71,163.49,321.72,163.49,321.72Z" style="fill:#ebebeb"></path><path d="M166,323.72a13.89,13.89,0,0,0-5.45-4,8.42,8.42,0,0,0-1.17-.81c-.46-.3-.92-.6-1.37-.91l-2.84-1.85c-1.92-1.27-3.86-2.5-5.74-3.82-.07,0-.15.07-.09.12,1.84,1.35,3.65,2.73,5.52,4,1,.67,1.92,1.34,2.9,2l.71.49c-.34-.11-.69-.2-1-.28a26.6,26.6,0,0,0-5.63-.69c-.88-.3-1.8-.52-2.69-.78-1.42-.4-2.85-.77-4.28-1.14-2.82-.72-5.66-1.36-8.5-2-.09,0-.12.11,0,.14,2.78.76,5.54,1.58,8.31,2.36l4,1.13,1,.3a33.86,33.86,0,0,0-10.7,2.26,44.8,44.8,0,0,0-9.4,5.11c-.08.05,0,.18.07.13a43.48,43.48,0,0,1,10.49-4.58l-.36.33-1.56,1.48c-1,1-2.09,2-3.11,3-.07.07,0,.16.11.1,1.07-.92,2.12-1.85,3.18-2.79l1.56-1.38.79-.72.25-.22a42.63,42.63,0,0,1,5.31-1.06,31.21,31.21,0,0,1,7.1-.09c-.13.16-.26.32-.39.46L152,321.17c-.74.85-1.46,1.71-2.18,2.57-1.48,1.75-2.82,3.61-4.28,5.37a.07.07,0,0,0,.11.1c1.55-1.72,3.22-3.34,4.76-5.07l2.3-2.61c.36-.41.71-.83,1.06-1.24.2-.23.4-.45.57-.69.23,0,.46,0,.68.08,3.21.49,6.55,1.41,9.08,3.54a9.45,9.45,0,0,1,3.38,8.29c0,.27.4.33.47.07A8.94,8.94,0,0,0,166,323.72Z" style="fill:#c7c7c7"></path><path d="M145.81,323.43l-3,3.38a35.74,35.74,0,0,0-2.8,3.35s0,.09.08.06a33.27,33.27,0,0,0,3-3.3l2.86-3.39A.07.07,0,0,0,145.81,323.43Z" style="fill:#c7c7c7"></path><path d="M134.19,321.24c-1.66-.07-3.33,0-5-.23a.07.07,0,1,0,0,.14,46.21,46.21,0,0,0,5,.15A0,0,0,1,0,134.19,321.24Z" style="fill:#c7c7c7"></path><path d="M161.9,302.75s-14.19.9-20.79-8.45S136,271.58,136,271.58s14.9,1.81,20.82,8.53S161.9,302.75,161.9,302.75Z" style="fill:#ebebeb"></path><path d="M168.55,316.74c-.49-1.52-1.1-3-1.67-4.5s-1.14-2.85-1.76-4.25a86.39,86.39,0,0,0-4.26-8.36c-1-1.73-2.07-3.4-3.17-5.05,0-.25-.08-.5-.12-.76-.06-.43-.12-.87-.19-1.31-.14-.9-.3-1.8-.45-2.69-.33-2-.73-3.91-1-5.87,0-.09-.16-.09-.15,0,.29,1.94.48,3.89.75,5.82.13,1,.26,1.91.4,2.86.06.34.11.69.17,1a101.08,101.08,0,0,0-7-9.1c-.34-.4-.69-.78-1-1.16,0-.11-.09-.22-.13-.33l-.31-.81c-.21-.56-.41-1.13-.61-1.69-.4-1.11-.76-2.23-1.06-3.37,0-.1-.16-.05-.14,0,.29,1.16.59,2.32.93,3.47.16.56.35,1.11.54,1.65l.1.28c-1.81-2-3.7-3.88-5.61-5.77a.07.07,0,0,0-.1.11,103.2,103.2,0,0,1,10,12.31,8,8,0,0,0-1-.26c-1.09-.21-2.2-.37-3.3-.51-2.31-.29-4.62-.59-6.92-.95-.09,0-.13.13,0,.14,2.2.44,4.37.93,6.56,1.43,1,.24,2.06.44,3.1.65a19.62,19.62,0,0,1,2.49.71c.23.32.47.65.69,1,1,1.51,2,3.06,3,4.62l-1.45-.29c-1.09-.21-2.19-.41-3.29-.59-2.17-.35-4.33-.73-6.47-1.22-.09,0-.13.13,0,.15,2.17.51,4.32,1.1,6.47,1.67,1,.28,2.09.53,3.14.77l1.58.34a5.37,5.37,0,0,0,.64.11q3.1,5,5.81,10.31c.79,1.54,1.56,3.1,2.29,4.67s1.41,3.25,2.11,4.89C168.15,317.23,168.67,317.1,168.55,316.74Z" style="fill:#c7c7c7"></path><path d="M154,284.14c-.27-1.35-.55-2.7-.85-4.05,0-.09-.16,0-.14,0,.27,1.33.52,2.66.76,4a38.25,38.25,0,0,0,.81,4s0,0,0,0A28,28,0,0,0,154,284.14Z" style="fill:#c7c7c7"></path><path d="M145.76,283.74c-.66-.32-1.36-.59-2-.85l-1.08-.43-.54-.22a2,2,0,0,1-.6-.26c-.11-.08-.18.11-.07.13a2.24,2.24,0,0,1,.6.25l.54.24,1,.46a22.16,22.16,0,0,0,2.09.83A.08.08,0,0,0,145.76,283.74Z" style="fill:#c7c7c7"></path><path d="M176.42,291.59s8.59-16,21.65-18.52S219.12,284,219.12,284s-9.52,12.17-21.51,14.3S176.42,291.59,176.42,291.59Z" style="fill:#ebebeb"></path><path d="M206.82,280.26a35.15,35.15,0,0,0-10.24.12c.19-.11.39-.22.58-.31l2.9-1.5c2-1,4-2.15,6.13-3a.08.08,0,1,0-.06-.14c-2,1-4.16,1.75-6.21,2.7-1,.47-2,1-3,1.49-.65.34-1.36.66-2,1.07a36.05,36.05,0,0,0-8.31,2.76l1.64-1.78c1.21-1.33,2.41-2.73,3.75-3.95.07-.06,0-.16-.11-.1-1.36,1.24-2.81,2.39-4.13,3.68-.65.63-1.26,1.28-1.86,1.95-.3.33-.6.67-.88,1a34.47,34.47,0,0,0-17.52,23.65c0,.09.12.14.14,0a39.45,39.45,0,0,1,9.61-16.24,37.74,37.74,0,0,1,17.5-10.13,38.62,38.62,0,0,1,12.07-1.1A.13.13,0,0,0,206.82,280.26Z" style="fill:#c7c7c7"></path><path d="M199.23,274.54a34.52,34.52,0,0,0-2.9,1.91,19,19,0,0,0-2.52,2.31c-.06.07,0,.17.12.1.86-.75,1.73-1.5,2.63-2.22a29.43,29.43,0,0,1,2.75-2A.07.07,0,1,0,199.23,274.54Z" style="fill:#c7c7c7"></path><path d="M206.4,277.25c-.48.21-1,.38-1.46.58l-1.45.6c-.11.05-.06.22,0,.17L205,278l1.45-.62C206.53,277.36,206.49,277.22,206.4,277.25Z" style="fill:#c7c7c7"></path><path d="M174.7,311.77S177,327.68,189,333.25s26.55,0,26.55,0S209.77,298.83,174.7,311.77Z" style="fill:#ebebeb"></path><path d="M207.27,322.9c-1.11-.13-2.2-.31-3.3-.51l-1.6-.31-.84-.17c-.33-.3-.64-.6-1-.89a48.26,48.26,0,0,0-7.32-5.31,42.06,42.06,0,0,0-4.38-2.25h.22l3.94.17c2.63.12,5.25.18,7.87.35.1,0,.09-.14,0-.15-2.63-.18-5.25-.46-7.88-.69l-3.83-.34-2-.17-.5-.06c-.69-.25-1.37-.49-2.07-.71a18.78,18.78,0,0,0-10.13-.56c-3,.77-6,2.75-6.79,5.92a.1.1,0,0,0,.19.07c1.12-2.65,4.06-4,6.72-4.53a16.11,16.11,0,0,1,5.41-.11,13.72,13.72,0,0,0,.61,2.41l1,3.35c.68,2.24,1.43,4.45,2.09,6.69,0,.09.17.05.14,0-.55-2.24-1-4.49-1.56-6.73-.26-1.09-.54-2.19-.81-3.29a18.58,18.58,0,0,0-.61-2.26,31.29,31.29,0,0,1,3.11.73,44.6,44.6,0,0,1,5.42,2c.18,1.13.43,2.26.69,3.38.33,1.4.69,2.79,1.14,4.16,0,.09.15.05.13,0a2,2,0,0,1,0-.26h0c-.26-1.3-.55-2.6-.83-3.9-.22-1-.42-2.1-.65-3.14a44.56,44.56,0,0,1,4.36,2.21c0,.32.11.65.16.95.08.54.18,1.09.28,1.63.23,1.23.47,2.45.77,3.66a57.24,57.24,0,0,0,2.05,6.92s0,.06,0,.09l.06.08c.05.06.14,0,.12-.07-.55-2.36-1.18-4.7-1.7-7.06-.26-1.18-.52-2.37-.76-3.55l-.33-1.78c0-.17-.06-.35-.09-.54a49.67,49.67,0,0,1,4.66,3.11,50.6,50.6,0,0,1,7.13,6.51c.09.1.26,0,.18-.14-.92-1.2-1.82-2.37-2.85-3.48-.61-.64-1.23-1.27-1.87-1.88l.2,0,1.69.25c1.1.15,2.21.26,3.32.38C207.32,323.05,207.36,322.91,207.27,322.9Z" style="fill:#c7c7c7"></path><path d="M198.86,328.29h0c0-.13,0-.27-.07-.41s-.12-.34-.14-.52h0c-.24-1.06-.45-2.13-.64-3.2a.07.07,0,0,0-.13,0,12.87,12.87,0,0,0,.91,4.15s.09,0,.08,0Z" style="fill:#c7c7c7"></path><path d="M188.85,328c0-.05,0-.07-.07-.07-.34-1.41-.66-2.82-.95-4.24-.16-.74-.31-1.49-.46-2.23-.07-.41-.15-.81-.22-1.21a3.38,3.38,0,0,0-.26-1,.07.07,0,0,0-.13,0,7.14,7.14,0,0,0,.3,2.14c.15.78.3,1.55.47,2.32.35,1.57.74,3.14,1.18,4.68,0,.09.17.07.16,0S188.85,328.15,188.85,328Z" style="fill:#c7c7c7"></path><path d="M206.18,318.32c-2.19-.3-4.37-.62-6.56-.88-.09,0-.13.13,0,.14,2.18.32,4.37.59,6.56.88C206.23,318.47,206.27,318.33,206.18,318.32Z" style="fill:#c7c7c7"></path><path d="M168.58,274.46s-7.32-32.11,27.18-45.11C195.76,229.35,205.32,271.62,168.58,274.46Z" style="fill:#ebebeb"></path><path d="M176,256.25l.37-.23,2-1.09,4-2.24c2.63-1.47,5.23-3,7.88-4.44.09-.05,0-.17-.07-.13-2.66,1.45-5.36,2.8-8,4.21l-4,2.09-1.62.86c1.15-2.19,2.38-4.33,3.73-6.39,1.81-2.75,3.78-5.37,5.84-7.93a.12.12,0,0,0-.17-.17,55.2,55.2,0,0,0-8,9.78c0-.11,0-.22,0-.33,0-.8.06-1.6.07-2.4,0-1.56-.05-3.13,0-4.7,0-.1-.14-.09-.15,0-.06,1.55-.25,3.08-.34,4.63,0,.77-.07,1.54-.1,2.31,0,.41-.05.89,0,1.34-.71,1.13-1.4,2.28-2,3.44a61.94,61.94,0,0,0-3.09,6.47c0-.8-.08-1.6-.13-2.4-.1-1.76-.31-3.51-.39-5.27a.07.07,0,1,0-.14,0c0,1.76,0,3.52,0,5.28,0,.87,0,1.75.11,2.63l.06,1a57.92,57.92,0,0,0-2.61,8.83,95.68,95.68,0,0,0-1.28,9.7s0,0,0,0a53.34,53.34,0,0,1,1.83-8.64c.43-1.52.88-3,1.37-4.52,1.43-.68,2.81-1.52,4.19-2.29s2.89-1.58,4.34-2.37c2.87-1.58,5.75-3.19,8.72-4.58.08,0,0-.17-.08-.13-3,1.37-6,2.66-9,4.15-1.47.73-2.92,1.52-4.35,2.33-1.2.68-2.43,1.35-3.58,2.13.34-1,.68-2,1.07-3A85.14,85.14,0,0,1,176,256.25Z" style="fill:#c7c7c7"></path><path d="M173.12,248.91c0-.1-.16-.1-.15,0,.12,1.83.18,3.66.38,5.49,0,.1.16.1.16,0C173.45,252.56,173.25,250.74,173.12,248.91Z" style="fill:#c7c7c7"></path><path d="M189.66,255c-2.16.87-4.34,1.69-6.49,2.59-.06,0,0,.13,0,.1,2.18-.81,4.33-1.7,6.5-2.55C189.79,255.15,189.75,255,189.66,255Z" style="fill:#c7c7c7"></path><path d="M192.94,240.23a55.72,55.72,0,0,0-6.14,3.29c-.1.06,0,.21.1.15,2-1.17,4-2.29,6.12-3.32C193.1,240.31,193,240.19,192.94,240.23Z" style="fill:#c7c7c7"></path><polygon points="185.59 392.51 150.97 392.51 154.49 343.91 182.08 343.91 185.59 392.51" style="fill:#dbdbdb"></polygon><polygon points="153.78 353.76 182.79 353.76 182.07 343.91 154.49 343.91 153.78 353.76" style="fill:#c7c7c7"></polygon><rect x="151.53" y="340.81" width="33.52" height="8.46" transform="translate(336.57 690.07) rotate(180)" style="fill:#dbdbdb"></rect></g><g id="freepik--Shadow--inject-42"><ellipse cx="260.42" cy="416.72" rx="208.62" ry="13.87" style="fill:#ebebeb"></ellipse><ellipse cx="116.08" cy="452.84" rx="90.06" ry="11.91" style="fill:#ebebeb"></ellipse></g><g id="freepik--Floor--inject-42"><polygon points="29.71 392.48 84.78 392.24 139.85 392.15 250 391.98 360.15 392.15 415.22 392.23 470.29 392.48 415.22 392.72 360.15 392.81 250 392.98 139.85 392.81 84.78 392.72 29.71 392.48" style="fill:#263238"></polygon></g><g id="freepik--Device--inject-42"><polygon points="202.98 415.44 448.42 415.44 467.42 248.75 221.98 248.75 202.98 415.44" style="fill:#455a64"></polygon><polygon points="216.35 404.26 437.6 404.26 454.05 259.93 232.81 259.93 216.35 404.26" style="fill:#fff"></polygon><rect x="130.95" y="404.26" width="315.75" height="11.18" transform="translate(577.65 819.7) rotate(180)" style="fill:#455a64"></rect><rect x="62.38" y="404.26" width="315.75" height="11.18" transform="translate(440.51 819.7) rotate(180)" style="fill:#37474f"></rect><polygon points="250.93 274.93 273.59 274.8 296.24 274.76 341.55 274.68 386.86 274.76 409.52 274.8 432.17 274.93 409.52 275.05 386.86 275.09 341.55 275.18 296.24 275.09 273.59 275.05 250.93 274.93" style="fill:#c7c7c7"></polygon><polygon points="250.03 282.32 272.68 282.19 295.34 282.15 340.65 282.07 385.96 282.15 408.61 282.19 431.27 282.32 408.61 282.44 385.96 282.48 340.65 282.57 295.34 282.48 272.68 282.44 250.03 282.32" style="fill:#c7c7c7"></polygon><polygon points="249.12 289.71 271.77 289.58 294.43 289.54 339.74 289.46 385.05 289.54 407.7 289.58 430.36 289.71 407.7 289.83 385.05 289.87 339.74 289.96 294.43 289.87 271.77 289.83 249.12 289.71" style="fill:#c7c7c7"></polygon><polygon points="248.21 297.1 270.87 296.98 293.52 296.93 338.83 296.85 384.14 296.93 406.8 296.98 429.45 297.1 406.8 297.22 384.14 297.26 338.83 297.35 293.52 297.26 270.87 297.22 248.21 297.1" style="fill:#c7c7c7"></polygon><polygon points="247.3 304.49 269.96 304.37 292.61 304.32 337.92 304.24 383.23 304.32 405.89 304.37 428.54 304.49 405.89 304.61 383.23 304.65 337.92 304.74 292.61 304.65 269.96 304.61 247.3 304.49" style="fill:#c7c7c7"></polygon><polygon points="246.4 311.88 269.05 311.76 291.71 311.71 337.02 311.63 382.33 311.71 404.98 311.76 427.64 311.88 404.98 312 382.33 312.05 337.02 312.13 291.71 312.04 269.05 312 246.4 311.88" style="fill:#c7c7c7"></polygon><polygon points="245.49 319.27 268.14 319.15 290.8 319.1 336.11 319.02 381.42 319.1 404.07 319.15 426.73 319.27 404.07 319.39 381.42 319.44 336.11 319.52 290.8 319.44 268.14 319.39 245.49 319.27" style="fill:#c7c7c7"></polygon><polygon points="244.58 326.66 267.24 326.54 289.89 326.49 335.2 326.41 380.51 326.49 403.17 326.54 425.82 326.66 403.17 326.78 380.51 326.83 335.2 326.91 289.89 326.82 267.24 326.78 244.58 326.66" style="fill:#c7c7c7"></polygon><polygon points="243.68 334.05 266.33 333.93 288.99 333.88 334.3 333.8 379.6 333.88 402.26 333.93 424.91 334.05 402.26 334.17 379.6 334.22 334.3 334.3 288.99 334.22 266.33 334.17 243.68 334.05" style="fill:#c7c7c7"></polygon><polygon points="242.77 341.44 265.42 341.32 288.08 341.27 333.39 341.19 378.7 341.27 401.35 341.32 424.01 341.44 401.35 341.56 378.7 341.61 333.39 341.69 288.08 341.61 265.42 341.56 242.77 341.44" style="fill:#c7c7c7"></polygon><polygon points="241.86 348.83 264.51 348.71 287.17 348.67 332.48 348.58 377.79 348.67 400.44 348.71 423.1 348.83 400.44 348.95 377.79 349 332.48 349.08 287.17 349 264.51 348.95 241.86 348.83" style="fill:#c7c7c7"></polygon><polygon points="240.95 356.22 263.61 356.1 286.26 356.06 331.57 355.97 376.88 356.06 399.54 356.1 422.19 356.22 399.54 356.34 376.88 356.39 331.57 356.47 286.26 356.39 263.61 356.34 240.95 356.22" style="fill:#c7c7c7"></polygon><polygon points="240.04 363.61 262.7 363.49 285.36 363.45 330.67 363.36 375.98 363.45 398.63 363.49 421.29 363.61 398.63 363.74 375.98 363.78 330.67 363.86 285.36 363.78 262.7 363.73 240.04 363.61" style="fill:#c7c7c7"></polygon><polygon points="239.14 371 261.79 370.88 284.45 370.84 329.76 370.75 375.07 370.84 397.72 370.88 420.38 371 397.72 371.13 375.07 371.17 329.76 371.25 284.45 371.17 261.79 371.13 239.14 371" style="fill:#c7c7c7"></polygon><polygon points="238.23 378.39 260.88 378.27 283.54 378.23 328.85 378.14 374.16 378.23 396.81 378.27 419.47 378.39 396.81 378.52 374.16 378.56 328.85 378.64 283.54 378.56 260.88 378.51 238.23 378.39" style="fill:#c7c7c7"></polygon><polygon points="277.49 326.66 263.75 326.66 256.34 387.01 270.08 387.01 277.49 326.66" style="fill:#FFC727"></polygon><polygon points="304.79 311.94 291.05 311.94 281.83 387.01 295.58 387.01 304.79 311.94" style="fill:#FFC727"></polygon><polygon points="329.36 319.52 315.62 319.52 307.33 387.01 321.07 387.01 329.36 319.52" style="fill:#FFC727"></polygon><polygon points="357.61 297.1 343.87 297.1 332.83 387.01 346.57 387.01 357.61 297.1" style="fill:#FFC727"></polygon><polygon points="381.63 309.15 367.88 309.15 358.32 387.01 372.07 387.01 381.63 309.15" style="fill:#FFC727"></polygon><polygon points="410.42 282.32 396.67 282.32 383.82 387.01 397.56 387.01 410.42 282.32" style="fill:#FFC727"></polygon><path d="M256.49,269.74l-3.2,29.37c-1.06,9.79-2.23,19.56-3.35,29.34l-3.4,29.35L243,387.12l-.92-1c14.69,0,29.39-.1,44.08,0l44.08.1,44.08.31,22,.24,22,.31-22,.31-22,.24-44.08.3-44.08.11c-14.69.07-29.39,0-44.08,0H241l.13-1,3.67-29.31,3.8-29.3c1.28-9.76,2.51-19.53,3.85-29.28Z" style="fill:#c7c7c7"></path><polygon points="269.17 394.45 255.42 394.45 255.58 393.21 269.32 393.21 269.17 394.45" style="fill:#c7c7c7"></polygon><polygon points="294.66 394.45 280.92 394.45 281.07 393.21 294.82 393.21 294.66 394.45" style="fill:#c7c7c7"></polygon><polygon points="320.16 394.45 306.42 394.45 306.57 393.21 320.31 393.21 320.16 394.45" style="fill:#c7c7c7"></polygon><polygon points="345.66 394.45 331.91 394.45 332.06 393.21 345.81 393.21 345.66 394.45" style="fill:#c7c7c7"></polygon><polygon points="371.15 394.45 357.41 394.45 357.56 393.21 371.31 393.21 371.15 394.45" style="fill:#c7c7c7"></polygon><polygon points="396.65 394.45 382.9 394.45 383.06 393.21 396.8 393.21 396.65 394.45" style="fill:#c7c7c7"></polygon><polygon points="232.01 266.93 232.81 259.93 454.05 259.93 453.25 266.93 232.01 266.93" style="fill:#263238"></polygon><path d="M238.65,263.43a2,2,0,0,1-2,1.74,1.51,1.51,0,0,1-1.53-1.74,2,2,0,0,1,2-1.74A1.5,1.5,0,0,1,238.65,263.43Z" style="fill:#c7c7c7"></path><path d="M245.75,263.43a2,2,0,0,1-1.95,1.74,1.51,1.51,0,0,1-1.53-1.74,2,2,0,0,1,2-1.74A1.5,1.5,0,0,1,245.75,263.43Z" style="fill:#fff"></path><path d="M252.86,263.43a2,2,0,0,1-2,1.74,1.5,1.5,0,0,1-1.52-1.74,2,2,0,0,1,2-1.74A1.51,1.51,0,0,1,252.86,263.43Z" style="fill:#FFC727"></path></g><g id="freepik--Rocket--inject-42"><path d="M222.23,184.43c-.9,0-34.36,15.44-36.34,53.47-1.82,35,22.35,68.17,25.47,66,3.82-2.69-2.67-24.47,4.76-49.39,2.63-8.84,14.15-16.68,14.15-16.68Z" style="fill:#FFC727"></path><path d="M230.28,237.8a52.81,52.81,0,0,0-9.16,8.25c-5-11.11-14.26-31.85-20.26-45.29,9.8-11.33,20.86-16.33,21.37-16.33Z" style="opacity:0.1"></path><path d="M307.39,184.49c.89,0,34.33,15.49,36.26,53.52,1.77,35-22.46,68.14-25.57,65.94-3.82-2.7,2.71-24.47-4.68-49.4-2.62-8.84-14.14-16.7-14.14-16.7Z" style="fill:#FFC727"></path><path d="M328.86,201c-6.06,13.56-15.36,34.34-20.28,45.32a53.13,53.13,0,0,0-9.31-8.45l8.12-53.37C307.9,184.48,319.05,189.55,328.86,201Z" style="opacity:0.1"></path><path d="M290.11,271.92l-50.49,0s-23.78-42.53-21-93.23c1.42-25.31,8-50.79,16-71.88C245.6,77.65,259.15,57,265,57s19.38,20.68,30.32,49.82c7.91,21.09,14.49,46.59,15.87,71.9C314,229.42,290.11,271.92,290.11,271.92Z" style="fill:#ebebeb"></path><path d="M295.15,172.15A29.12,29.12,0,1,1,266.06,143,29.11,29.11,0,0,1,295.15,172.15Z" style="fill:#c7c7c7"></path><path d="M294.12,169.19A29.12,29.12,0,1,1,265,140.05,29.11,29.11,0,0,1,294.12,169.19Z" style="fill:#FFC727"></path><circle cx="265" cy="169.17" r="20.19" transform="translate(70.45 416.14) rotate(-84.32)" style="fill:#fff"></circle><path d="M285.2,169.16a20,20,0,0,1-1.37,7.32L272.33,188a20.25,20.25,0,0,1-12.72.62l24.85-24.85A20.06,20.06,0,0,1,285.2,169.16Z" style="fill:#ebebeb"></path><path d="M268,149.19,245,172.13a20.62,20.62,0,0,1-.22-3A20.2,20.2,0,0,1,265,149,20.62,20.62,0,0,1,268,149.19Z" style="fill:#ebebeb"></path><path d="M282.68,159.39l-27.45,27.44a16.35,16.35,0,0,1-1.54-1l28-28C282.06,158.33,282.38,158.85,282.68,159.39Z" style="fill:#ebebeb"></path><path d="M295.34,106.82l-60.69,0C245.6,77.65,259.15,57,265,57S284.4,77.68,295.34,106.82Z" style="fill:#FFC727"></path><path d="M245.1,100.51a1.7,1.7,0,1,1-1.7-1.7A1.7,1.7,0,0,1,245.1,100.51Z" style="fill:#fff"></path><path d="M255.9,100.52a1.7,1.7,0,1,1-1.7-1.7A1.7,1.7,0,0,1,255.9,100.52Z" style="fill:#fff"></path><path d="M266.69,100.53A1.7,1.7,0,1,1,265,98.82,1.7,1.7,0,0,1,266.69,100.53Z" style="fill:#fff"></path><path d="M277.49,100.53a1.7,1.7,0,1,1-1.7-1.7A1.7,1.7,0,0,1,277.49,100.53Z" style="fill:#fff"></path><path d="M288.29,100.54a1.7,1.7,0,1,1-1.7-1.7A1.7,1.7,0,0,1,288.29,100.54Z" style="fill:#fff"></path><path d="M245,264.12a1.7,1.7,0,1,1-1.7-1.7A1.7,1.7,0,0,1,245,264.12Z" style="fill:#c7c7c7"></path><path d="M255.83,264.13a1.7,1.7,0,1,1-1.7-1.7A1.7,1.7,0,0,1,255.83,264.13Z" style="fill:#c7c7c7"></path><path d="M266.62,264.14a1.7,1.7,0,1,1-1.69-1.7A1.69,1.69,0,0,1,266.62,264.14Z" style="fill:#c7c7c7"></path><path d="M277.42,264.14a1.7,1.7,0,1,1-1.7-1.7A1.7,1.7,0,0,1,277.42,264.14Z" style="fill:#c7c7c7"></path><path d="M288.22,264.15a1.7,1.7,0,1,1-1.7-1.7A1.7,1.7,0,0,1,288.22,264.15Z" style="fill:#c7c7c7"></path><polygon points="285.45 287.1 244.39 287.06 242.47 271.89 287.39 271.92 285.45 287.1" style="fill:#FFC727"></polygon><polygon points="287.39 271.93 286.44 279.31 243.21 277.69 242.48 271.89 287.39 271.93" style="opacity:0.1"></polygon><path d="M171.22,361a7.25,7.25,0,1,1-7.25-7.25A7.25,7.25,0,0,1,171.22,361Z" style="fill:#FFC727;opacity:0.6000000000000001"></path><circle cx="176.5" cy="347.14" r="3.53" style="fill:#FFC727;opacity:0.6000000000000001"></circle><path d="M335.1,357.48a3.53,3.53,0,1,1-3.53-3.54A3.53,3.53,0,0,1,335.1,357.48Z" style="fill:#FFC727;opacity:0.6000000000000001"></path><path d="M405.84,389.72a3.53,3.53,0,1,1-3.53-3.53A3.54,3.54,0,0,1,405.84,389.72Z" style="fill:#FFC727;opacity:0.6000000000000001"></path><path d="M400.43,400.05a4.21,4.21,0,0,1-4.22,4.21H133.59a4.21,4.21,0,0,1,0-8.42,4.15,4.15,0,0,1,1,.12,8.3,8.3,0,0,1,14.24-5.81l.08,0c0-.51-.08-1-.08-1.55a15.68,15.68,0,0,1,15.68-15.68,15.49,15.49,0,0,1,6.9,1.6,11.19,11.19,0,0,1,21.6-3.4,15.69,15.69,0,0,1,16.28-7,20.09,20.09,0,0,1-.32-3.66A21.22,21.22,0,0,1,244,344.31a4.22,4.22,0,0,1,3.74-2.28,4.33,4.33,0,0,1,1.62.32L253.33,287h23.14l3.94,55.32A4.33,4.33,0,0,1,282,342a4.22,4.22,0,0,1,3.74,2.28,21.22,21.22,0,0,1,34.75,19.74,15.47,15.47,0,0,1,3-.29,15.65,15.65,0,0,1,13.28,7.33,11.19,11.19,0,0,1,21.6,3.4,15.49,15.49,0,0,1,6.9-1.6A15.68,15.68,0,0,1,381,388.57c0,.52,0,1-.08,1.55l.08,0A8.3,8.3,0,0,1,395.21,396a4.15,4.15,0,0,1,1-.12A4.22,4.22,0,0,1,400.43,400.05Z" style="fill:#FFC727;opacity:0.6000000000000001"></path><polygon points="333.84 365.38 328.38 366.39 327.16 372.15 325.94 366.39 320.48 365.38 325.91 364.05 327.16 358.61 328.4 364.05 333.84 365.38" style="fill:#fdfdfd"></polygon><polygon points="280.72 319.21 275.26 320.22 274.04 325.98 272.81 320.22 267.35 319.21 272.79 317.88 274.04 312.44 275.28 317.88 280.72 319.21" style="fill:#fdfdfd"></polygon><polygon points="201.35 376.34 198.29 376.91 197.61 380.13 196.93 376.91 193.88 376.34 196.92 375.6 197.61 372.56 198.31 375.6 201.35 376.34" style="fill:#fdfdfd"></polygon><polygon points="365.6 385.94 362.54 386.51 361.86 389.72 361.18 386.51 358.13 385.94 361.17 385.2 361.86 382.16 362.56 385.2 365.6 385.94" style="fill:#fdfdfd"></polygon><polygon points="159.34 397.22 156.28 397.78 155.6 401 154.92 397.78 151.87 397.22 154.91 396.48 155.6 393.44 156.29 396.48 159.34 397.22" style="fill:#fdfdfd"></polygon><polygon points="292.12 394.54 289.07 395.11 288.39 398.32 287.7 395.11 284.65 394.54 287.69 393.8 288.39 390.76 289.08 393.8 292.12 394.54" style="fill:#fdfdfd"></polygon><polygon points="269.77 310.46 266.72 311.02 266.04 314.24 265.36 311.02 262.3 310.45 265.34 309.71 266.04 306.67 266.73 309.71 269.77 310.46" style="fill:#fdfdfd"></polygon><path d="M372.82,392.9a.89.89,0,0,0,0,1.77A.89.89,0,0,0,372.82,392.9Z" style="fill:#fdfdfd"></path><path d="M258,299.29a.89.89,0,0,0,0,1.77A.89.89,0,0,0,258,299.29Z" style="fill:#fdfdfd"></path><path d="M182.46,397.22a.89.89,0,0,0,0,1.77A.89.89,0,0,0,182.46,397.22Z" style="fill:#fdfdfd"></path><path d="M238.55,385.06a.89.89,0,0,0,0,1.77A.89.89,0,0,0,238.55,385.06Z" style="fill:#fdfdfd"></path><path d="M350.65,377a.63.63,0,0,0,0,1.25A.63.63,0,0,0,350.65,377Z" style="fill:#fdfdfd"></path><path d="M273.3,367.6a.63.63,0,0,0,0,1.26A.63.63,0,0,0,273.3,367.6Z" style="fill:#fdfdfd"></path><path d="M216.68,355.37a.63.63,0,0,0,0,1.25A.63.63,0,0,0,216.68,355.37Z" style="fill:#fdfdfd"></path><path d="M313.55,357.92a1.7,1.7,0,0,0,0,3.4A1.7,1.7,0,0,0,313.55,357.92Z" style="fill:#fdfdfd"></path><path d="M224.69,349.61a1.7,1.7,0,0,0,0,3.4A1.7,1.7,0,0,0,224.69,349.61Z" style="fill:#fdfdfd"></path></g><g id="freepik--Character--inject-42"><path d="M152.86,454.81c-2,.65-59.27-.1-61.43-1.51-.83-.52-1.21-8.87-1.37-19V434c0-2.08-.07-4.23-.07-6.4,0-.3,0-.6,0-.89L92.75,397l38.31.38-3.78,29.43,0,1.17-.23,6.09,0,.62s21.79,10.09,24,11.9S154.87,454.17,152.86,454.81Z" style="fill:#dd6a57"></path><path d="M152.86,454.81c-2,.65-59.27-.1-61.43-1.51-.83-.52-1.21-8.87-1.37-19V434c0-2.08-.07-4.23-.07-6.4,0-.3,0-.6,0-.89l37.3.1,0,1.17-.23,6.09,0,.62s21.79,10.09,24,11.9S154.87,454.17,152.86,454.81Z" style="fill:#ebebeb"></path><path d="M152.87,454.81c-1,.33-16.59.29-31.8,0-3.06-.06-6.1-.13-9-.21-10.84-.3-19.8-.75-20.63-1.29s-1.2-8.64-1.37-18.55c0-.14,0-.28,0-.42s0-.22,0-.33h0l36.9.07,0,.63s21.8,10.08,24,11.89S154.87,454.17,152.87,454.81Z" style="fill:#FFC727"></path><path d="M152.24,452.58c-9.65-.36-48.6-.91-58.16-.54-.08,0-.08.06,0,.06,9.56.57,48.52.81,58.17.64C152.44,452.74,152.45,452.59,152.24,452.58Z" style="fill:#263238"></path><path d="M131.11,434.23c-3.79-.75-8.44-.23-11.38,2.44-.11.1,0,.26.16.22a53.87,53.87,0,0,1,11.2-2.18A.24.24,0,0,0,131.11,434.23Z" style="fill:#263238"></path><path d="M133.83,435.92c-3.79-.76-8.44-.23-11.38,2.44-.11.1,0,.26.16.22a53.87,53.87,0,0,1,11.2-2.18A.24.24,0,0,0,133.83,435.92Z" style="fill:#263238"></path><path d="M136.55,437.61c-3.79-.76-8.44-.23-11.38,2.43-.11.11,0,.27.16.23a53.22,53.22,0,0,1,11.2-2.18A.24.24,0,0,0,136.55,437.61Z" style="fill:#263238"></path><path d="M121.07,454.8c-3.06-.06-6.1-.13-9-.21-10.84-.3-19.8-.75-20.63-1.29s-1.2-8.64-1.37-18.55c0-.14,0-.28,0-.42s0-.22,0-.33h0C95.15,437.55,113,449.41,121.07,454.8Z" style="fill:#263238"></path><path d="M129.51,434.2H88.28s8.3-96.31,8-98c-.42-2.16-2.85-11.91-6.09-24.64-1-4-2.11-8.26-3.25-12.69-3.08-12-6.47-25.08-9.42-36.48-4.43-17.07-7.89-30.33-7.89-30.33h35s4.07,12.91,9.21,29.71c8.36,27.3,19.54,64.88,20.64,74C136.2,350.55,129.51,434.2,129.51,434.2Z" style="fill:#455a64"></path><path d="M127.69,427.17c-6.3-.13-4.49-.18-10.79-.25-3.08,0-23.34-.2-26.22.28a.06.06,0,0,0,0,.12c2.88.48,23.14.3,26.22.27,6.3-.06,4.49-.11,10.79-.24A.09.09,0,1,0,127.69,427.17Z" style="fill:#263238"></path><path d="M104,330.32c-1.36-6-3.38-11.8-5.14-17.65Q93.53,294.83,88.1,277q-2.71-8.91-5.44-17.81c-.93-3-1.85-6-2.78-9s-2-5.83-2.79-8.79c-.34-1.2-.53-.54-.09,1,.87,3.07,1.72,6.15,2.62,9.22q2.67,9.12,5.36,18.22Q90.35,288,95.8,306.09l5.46,18.14a73.78,73.78,0,0,1,2.23,8.78,40.42,40.42,0,0,1,.36,9.39c-.39,6.31-1.12,12.61-1.71,18.91s-1.16,12.61-1.75,18.92q-1.74,18.82-3.45,37.66c-.14,1.59-.28,3.18-.41,4.78,0,.53.77.49.82,0,1.36-12.42,2.4-24.87,3.57-37.3l3.48-37.11c.29-3.11.62-6.22.62-9.34A38.68,38.68,0,0,0,104,330.32Z" style="fill:#263238"></path><path d="M100.59,232.07c-2.42,18.77-7,54-10.42,79.5-7.88-30.94-20.56-79.5-20.56-79.5Z" style="fill:#263238"></path><path d="M109.18,455.36c-2,.66-59.27.12-61.44-1.28-.83-.52-1.24-8.87-1.44-19,0-.11,0-.21,0-.32,0-2.08-.08-4.22-.09-6.4,0-.3,0-.6,0-.89-.14-14.58.92-29.71.92-29.71l37.42.25-1,29.43,0,1.16-.21,6.09,0,.63s21.83,10,24,11.8S111.18,454.71,109.18,455.36Z" style="fill:#dd6a57"></path><path d="M109.18,455.36c-2,.66-59.27.12-61.44-1.28-.83-.52-1.24-8.87-1.44-19,0-.11,0-.21,0-.32,0-2.08-.08-4.22-.09-6.4,0-.3,0-.6,0-.89l37.3,0,0,1.16-.21,6.09,0,.63s21.83,10,24,11.8S111.18,454.71,109.18,455.36Z" style="fill:#ebebeb"></path><path d="M109.18,455.36c-2,.66-59.27.12-61.44-1.28-.83-.52-1.24-8.87-1.44-19,0-.11,0-.21,0-.32l36.95-.07,0,.63s21.83,10,24,11.8S111.18,454.71,109.18,455.36Z" style="fill:#FFC727"></path><path d="M108.55,453.13c-9.65-.32-48.61-.73-58.17-.32-.08,0-.08.06,0,.06,9.56.53,48.51.63,58.17.42C108.75,453.29,108.75,453.14,108.55,453.13Z" style="fill:#263238"></path><path d="M87.35,434.87c-3.79-.75-8.44-.21-11.37,2.47-.11.1,0,.26.16.23a52.7,52.7,0,0,1,11.19-2.22A.24.24,0,0,0,87.35,434.87Z" style="fill:#263238"></path><path d="M90.08,436.54c-3.79-.74-8.44-.2-11.37,2.48-.12.1,0,.26.16.22A53.84,53.84,0,0,1,90.06,437,.24.24,0,0,0,90.08,436.54Z" style="fill:#263238"></path><path d="M92.8,438.22c-3.79-.74-8.44-.2-11.37,2.48-.11.1,0,.26.16.22a54,54,0,0,1,11.19-2.22A.24.24,0,0,0,92.8,438.22Z" style="fill:#263238"></path><path d="M103.43,232.07s-.81,16.72-4.63,30c-.31,1.1-.64,2.18-1,3.21a62.52,62.52,0,0,0-10.08,5.18s-.4,13.45-.8,28.46c-.45,16.77-.91,35.48-.82,39.45.35,14.84-1.85,96.48-1.85,96.48L43,435s7.45-91.16,7.4-96.6c-.08-8.74,2-47.38,3.6-75.56,1-17.36,1.79-30.74,1.79-30.74Z" style="fill:#455a64"></path><path d="M82.83,427.47c-6.29-.1-4.49-.16-10.78-.19-3.09,0-23.34-.11-26.22.38-.06,0-.06.12,0,.13,2.88.46,23.14.2,26.22.16,6.3-.09,4.49-.13,10.79-.29A.1.1,0,0,0,82.83,427.47Z" style="fill:#263238"></path><path d="M59.27,238c-.76,23-1.56,46-2.59,69s-2.42,46.14-4.35,69.15c-1.08,12.86-2.1,30.95-3.49,43.77a.07.07,0,0,0,.14,0c3-22.81,4.67-51,6.15-74s2.47-46,3.26-68.95c.44-13,.78-26,1.17-39C59.56,237.84,59.28,237.86,59.27,238Z" style="fill:#263238"></path><path d="M99.51,264.24a77.38,77.38,0,0,0-11.79,6.18.14.14,0,0,0,.13.24c4-1.93,8-3.79,11.9-5.94A.27.27,0,0,0,99.51,264.24Z" style="fill:#263238"></path><path d="M99.74,250.06c-.27,1.46-.63,2.91-.94,4.37s-.52,2.76-.88,4.11A7.07,7.07,0,0,1,96,262c-.54.5-1.13.94-1.7,1.39-.31.25-.64.49-1,.74,0-.2.07-.39.11-.59.09-.56.19-1.11.28-1.67.21-1.24.41-2.47.6-3.71.37-2.43.71-4.89,1.22-7.29,0-.1-.13-.14-.15,0-.61,2.38-1.28,4.74-1.81,7.15-.26,1.18-1.18,7-1.22,7.42s-.08.85-.09,1.28a4.72,4.72,0,0,0,0,1.3c0,.11.15.09.19,0h0a5.14,5.14,0,0,0,.37-1.27c.11-.42.2-.84.28-1.26,0-.15,0-.31.07-.47.57-.34,1.1-.8,1.64-1.19s1.17-.83,1.71-1.29a6.54,6.54,0,0,0,2.1-3.27,23.62,23.62,0,0,0,.68-4.19c.19-1.65.32-3.31.55-5C99.91,250,99.76,250,99.74,250.06Z" style="fill:#263238"></path><path d="M89.71,192.77c15.92,8.87,39,11.83,45.49,7.95,6.86-4.09,16.42-24.1,17.11-37.54.15-3-22.24-1.79-22.79.23-1.61,6-6.45,17.16-7.48,17.19-1.35,0-18.46.81-30.35-.64C76.92,178.17,81,187.89,89.71,192.77Z" style="fill:#dd6a57"></path><path d="M153.26,151.12c.84,4.72-1.21,15-2.66,17.36s-19.13-.6-20.46-3.06-2.95-18.57-.61-22.87S152.38,146.23,153.26,151.12Z" style="fill:#dd6a57"></path><path d="M127.26,149.89c1.68,1.9,3-1.16,3-1.16s-.79,4.86,1.7,6.16,3.83-2.52,3.94-2.79c0,.26-.65,4.75,2,5.8s3.53-2.94,3.58-3.2c0,.26.61,3.62,2.79,4,3.76.59,2.53-8.06,4.48-10.44,0,0,4.41,2.85,4.56,2.9s-1-8.25-4.36-10.7a2.65,2.65,0,0,0-3.32.11s0-2.7-2.08-3.59c-1.06-.45-2.72.83-2.72.83a3.32,3.32,0,0,0-2-2.84c-1.49-.54-2.93.83-2.93.83s-1.06-2-2.77-2.08C129.65,133.54,123.68,145.8,127.26,149.89Z" style="fill:#dd6a57"></path><path d="M135.6,135.94s0-.08,0,0a23.64,23.64,0,0,0-5.41,13c0,.16.24.24.28.07A48.47,48.47,0,0,1,135.6,135.94Z" style="fill:#263238"></path><path d="M140.79,137.7a.05.05,0,0,0-.09,0,22.09,22.09,0,0,0-5,14.53c0,.19.2.34.21.13C136,148.72,138.52,141.48,140.79,137.7Z" style="fill:#263238"></path><path d="M141.58,155.07c-.07-5.17,1.53-9.84,3.86-14.4,0-.06-.05-.09-.09,0a19.76,19.76,0,0,0-3.65,7.44,13.57,13.57,0,0,0-.3,7C141.42,155.17,141.58,155.18,141.58,155.07Z" style="fill:#263238"></path><path d="M130.23,148.73a15.84,15.84,0,0,0,.06,2.84,5.38,5.38,0,0,0,.9,2.56,1.79,1.79,0,0,0,1.05.64,2.56,2.56,0,0,0,1.26-.11,3,3,0,0,0,1.64-1.85l.71-2,0,2.09a8.33,8.33,0,0,0,.43,2.72,3,3,0,0,0,1.58,1.93,1.75,1.75,0,0,0,2.14-.5,5.21,5.21,0,0,0,1-2.44l.41-2.43.41,2.42a7.89,7.89,0,0,0,.58,2,3.3,3.3,0,0,0,1.19,1.49,1.54,1.54,0,0,0,1.65,0,3.36,3.36,0,0,0,1.08-1.61,26.8,26.8,0,0,0,1-4.15c.15-.71.29-1.42.47-2.12a5.16,5.16,0,0,1,.85-2,5.61,5.61,0,0,0-.65,2c-.13.71-.22,1.42-.31,2.14a23.33,23.33,0,0,1-.84,4.3,4.08,4.08,0,0,1-1.23,2,2.25,2.25,0,0,1-2.44.08,4.06,4.06,0,0,1-1.52-1.81,8.65,8.65,0,0,1-.69-2.18h.82a6,6,0,0,1-1.15,2.89,2.56,2.56,0,0,1-1.45.91,2.82,2.82,0,0,1-1.68-.2,3.81,3.81,0,0,1-2-2.44,9,9,0,0,1-.44-3l.73.13a3.64,3.64,0,0,1-2.16,2.18,3.06,3.06,0,0,1-1.56.06,2.19,2.19,0,0,1-1.3-.87,5.45,5.45,0,0,1-.79-2.82A12.37,12.37,0,0,1,130.23,148.73Z" style="fill:#263238"></path><path d="M129.38,162.73s-11.18-17-2.39-18.12c2.61-.33,13.72,1.43,13.41,3.67-.4,2.89-5.17,3-8.19,2.63,0,0,4.62,5.25,1.93,9.55A5.05,5.05,0,0,1,129.38,162.73Z" style="fill:#dd6a57"></path><path d="M126.26,144.75a10.68,10.68,0,0,1,3.09-.3,23,23,0,0,1,3.1.27,35.24,35.24,0,0,1,6.08,1.42,5.65,5.65,0,0,1,1.48.73,2.07,2.07,0,0,1,.64.7,1.78,1.78,0,0,1,.19.48,1.81,1.81,0,0,1,0,.52,2.63,2.63,0,0,1-.88,1.59,4.84,4.84,0,0,1-1.48.83,9.42,9.42,0,0,1-3.17.5,21.79,21.79,0,0,1-3.14-.22l.31-.6a12.24,12.24,0,0,1,1.33,2,12,12,0,0,1,.93,2.18,8.07,8.07,0,0,1,.33,2.34,6,6,0,0,1-.44,2.29,6.78,6.78,0,0,0,.19-2.28,8.37,8.37,0,0,0-.52-2.21,11.25,11.25,0,0,0-1-2,12.71,12.71,0,0,0-1.35-1.79l-.63-.68.94.08a23.62,23.62,0,0,0,3,.12,9.22,9.22,0,0,0,2.89-.48c.87-.33,1.71-.94,1.81-1.73s-.85-1.21-1.75-1.56-1.92-.64-2.9-.91-2-.53-3-.73A19.51,19.51,0,0,0,126.26,144.75Z" style="fill:#263238"></path><path d="M125.87,168.52l27.39,1.81s-8,28.88-20,32.06S99.06,200.26,88.58,193s-10.07-14.17,1.9-13.53,30,1,31.26,0S125.87,168.52,125.87,168.52Z" style="fill:#FFC727"></path><path d="M153.26,170.33s-.13.48-.4,1.34l-.13.44c-.2.63-.45,1.42-.76,2.33a.93.93,0,0,1,0,.13c-.13.38-.26.78-.41,1.2l-.12.34-.27.78-.17.45c-.27.74-.56,1.52-.87,2.33a.61.61,0,0,0-.05.12c-.3.75-.61,1.54-.95,2.33a.08.08,0,0,1,0,0l-.16.39c-.09.22-.18.43-.28.65-.24.56-.49,1.12-.74,1.68l-.06.12c-.35.77-.72,1.55-1.11,2.33-.07.15-.15.3-.23.45l-.19.38c0,.08-.08.17-.13.25-.29.57-.59,1.13-.9,1.69a.83.83,0,0,0-.07.13c-.44.78-.88,1.54-1.35,2.29,0,0,0,0,0,0l-.28.44-.15.23c-.47.72-1,1.43-1.45,2.1a.83.83,0,0,1-.08.12c-.26.35-.52.69-.79,1l-.13.16c-.32.4-.65.78-1,1.15l-.4.44c-.31.32-.62.63-.94.92a5.31,5.31,0,0,1-.44.4c-.41.37-.83.7-1.25,1l-.19.13a9.53,9.53,0,0,1-.89.57l-.12.07a9.87,9.87,0,0,1-2.33,1,1.39,1.39,0,0,1-.19.06l-.25.06a22.85,22.85,0,0,1-2.33.47l-.13,0-.45.07c-.61.08-1.23.15-1.87.2l-.45,0c-.75,0-1.53.09-2.32.09h-.13l-2.33,0-.44,0c-.76,0-1.54-.08-2.33-.15h-.12l-1.27-.12-1.06-.12c-.15,0-.3,0-.44-.06-.77-.09-1.55-.2-2.33-.33l-.13,0c-.77-.12-1.54-.26-2.32-.41a3.58,3.58,0,0,1-.45-.09c-.78-.15-1.56-.31-2.33-.49l-.12,0c-.78-.18-1.56-.37-2.33-.57a3.17,3.17,0,0,1-.44-.12l-.31-.08-.47-.13c-.52-.13-1-.28-1.55-.44l-.12,0c-.78-.23-1.56-.48-2.33-.73l-.45-.15c-.79-.27-1.56-.55-2.32-.83l-.13,0-.26-.1-1.12-.44-1-.39-.44-.19c-.8-.34-1.58-.69-2.33-1.05l-.12-.06c-.43-.21-.86-.42-1.27-.64l-.23-.12-.83-.45-.44-.24c-.82-.47-1.61-1-2.33-1.44l-.13-.09-.13-.09,0,0-.62-.44c-.55-.39-1.06-.79-1.54-1.18-.16-.12-.3-.24-.45-.37-.31-.26-.61-.52-.89-.78l-.14-.13q-.72-.68-1.29-1.32l-.13-.14c-.26-.29-.49-.58-.7-.86s-.23-.3-.33-.45A8.28,8.28,0,0,1,81.3,185a.27.27,0,0,1,0-.12,2.08,2.08,0,0,1-.11-.48,3.16,3.16,0,0,1,0-1.37,2.42,2.42,0,0,1,.13-.48,2,2,0,0,1,.21-.44,4.09,4.09,0,0,1,2-1.72l.13-.06a9.24,9.24,0,0,1,1.77-.55l.55-.1.11,0,.34,0a16.55,16.55,0,0,1,2.32-.15h.13c.51,0,1.06,0,1.64,0l.69,0,.44,0c.76,0,1.53.08,2.33.12h.12l2.33.09.44,0h0l2.32.08h.13l2.32.08h.45l2.33.06h.12l2.33.05h.44l2.33,0h2.9l2.32,0H115c.84,0,1.62,0,2.33-.06l.44,0c.91,0,1.7-.09,2.33-.16h.12l.55-.07.61-.12a1.09,1.09,0,0,0,.4-.17,4.16,4.16,0,0,0,.77-1.24c.13-.27.27-.58.4-.92a.36.36,0,0,0,0-.09l.15-.36c.28-.71.57-1.51.85-2.32,0,0,0-.09,0-.13.27-.79.53-1.59.77-2.33,0-.15.09-.3.14-.44l.37-1.18c0-.15.09-.29.13-.43s.16-.51.22-.72a.56.56,0,0,1,0-.12c.12-.44.2-.7.2-.7l1.86.12.45,0,2.32.16h.13L133,169l.44,0,2.33.15h.12l.61,0,1.72.11h.1l.34,0,2.33.16h.13l2.32.15.45,0,2.32.15h.13l2.33.15.44,0,2.33.16h.12Z" style="fill:#FFC727"></path><path d="M81.16,183v1.37A3.16,3.16,0,0,1,81.16,183Zm2.33-2.64v8.25l.13.14v-8.45Zm2.56-.73h-.11V191c.15.13.29.25.45.37V179.62Zm2.66-.2v13.65l.13.09V179.46Zm2.46.06v15.12l.44.24V179.55Zm2.77.14V196.1l.12.06V179.67Zm2.45.1v17.44l.44.19V179.79Zm2.77.1v18.46l.13,0v-18.5Zm2.45.09v19.25l.45.15V180Zm2.78.07v20.06l.12,0V180Zm2.45.05v20.69a3.17,3.17,0,0,0,.44.12v-20.8Zm2.77,0v21.34l.12,0V180.12Zm2.45,0V202a3.58,3.58,0,0,0,.45.09V180.13Zm2.77,0v22.37l.13,0V180.11Zm2.46-.06v22.78c.14,0,.29,0,.44.06V180Zm2.77-.18v23.26h.12V179.86Zm2.85-2.53c-.13.34-.27.65-.4.92v25l.44,0V177.25A.36.36,0,0,1,122.91,177.34Zm2.37-6.85v32.85h.13V170.06C125.37,170.2,125.32,170.34,125.28,170.49Zm2.45-1.85v34.6l.45,0V168.67Zm2.77.19v34.11l.13,0V168.83ZM133,169v33.46l.25-.06a1.39,1.39,0,0,0,.19-.06V169Zm2.77.18v32.16l.12-.07V169.18Zm2.55.17h-.1v30.22a5.31,5.31,0,0,0,.44-.4V169.34Zm2.67.18v27.12l.13-.16V169.53Zm2.45.16v23.56l.15-.23.28-.44h0V169.71Zm2.77.18v18.56c.05-.08.09-.17.13-.25v-18.3Zm2.46.16v13.19c.1-.22.19-.43.28-.65l.16-.39V170.05Zm2.77.19v5.9l.12-.34v-5.55Zm-13.22-.88-1.72-.11H125.67a.56.56,0,0,0,0,.12h12.55Zm-13.27,2.34c0,.14-.09.29-.14.44h28l.13-.44Zm-.91,2.77s0,.09,0,.13h28a.93.93,0,0,0,0-.13Zm-.9,2.45-.15.36a.36.36,0,0,1,0,.09H151l.17-.45Zm-26.71,2.88-2.33-.09H85.94v0l-.55.1H96.83Zm25-.1-.61.12H150a.61.61,0,0,1,.05-.12ZM81.5,182.12a2,2,0,0,0-.21.44h67.62l.16-.39a.08.08,0,0,0,0,0Zm-.23,2.77a.27.27,0,0,0,0,.12h66.53l.06-.12Zm1.19,2.45q.15.22.33.45h63.7c.08-.15.16-.3.23-.45Zm2.45,2.77.14.13H145.2a.83.83,0,0,1,.07-.13Zm3,2.46.62.44h55l.28-.44Zm4.51,2.77.23.12h49.2a.83.83,0,0,0,.08-.12Zm5.34,2.45,1.12.44h40.66l.4-.44Zm8.28,2.77.47.13h30.21l.19-.13ZM118.79,203l1.27.12h.12c.79.07,1.57.12,2.33.15l.44,0,2.33,0h.13c.79,0,1.57,0,2.32-.09l.45,0c.64-.05,1.26-.12,1.87-.2Z" style="fill:#fff;opacity:0.3"></path><path d="M102.59,199.53a55.56,55.56,0,0,1-14-6.5c-9.2-6.35-10-12.46-2-13.43Z" style="fill:#263238"></path><path d="M125.47,173.35c1.06.24,2.17.28,3.25.42s2.16.23,3.25.32c2.09.17,4.19.31,6.28.44l6.29.39c2.17.13,4.37.37,6.54.32a.08.08,0,0,0,0-.15c-2.14-.36-4.35-.45-6.51-.64l-6.39-.55c-2.13-.17-4.27-.34-6.4-.48-1-.06-2.1-.12-3.15-.14a30.56,30.56,0,0,0-3.17-.07C125.38,173.22,125.4,173.34,125.47,173.35Z" style="fill:#263238"></path><path d="M51.51,256.91c.15.15,60.56-4,61.07-4.64.7-.93-17.61-65.39-24.39-73-1.45-1.64-5.86-1.81-9.54-1.08a17.56,17.56,0,0,0-2.83.79l-.09,0a6.88,6.88,0,0,0-2,1.18c-9.76,9-16.4,38.49-17.81,47.3C53.54,242,51,256.38,51.51,256.91Z" style="fill:#FFC727"></path><path d="M52.27,249.64v7.24h-.12V250h.06Zm2.49-15.28c0,.15,0,.3-.08.44s0,.35-.08.52v21.43l.44,0v-24.1C55,233.21,54.85,233.79,54.76,234.36Zm2.61-14.43v36.65h.13V219.36C57.45,219.55,57.41,219.75,57.37,219.93Zm2.85-11.25-.39,1.38v46.35l.44,0V208.51A1.09,1.09,0,0,0,60.22,208.68Zm2.38-7.63v55.18h.12V200.7Zm2.45-6.56v61.58l.44,0V193.44Zm2.77-6v67.41h.12V188.25Zm2.45-4.17v71.41l.3,0h.15v-72ZM73,180.81v74.71h.13V180.68A1.59,1.59,0,0,1,73,180.81ZM75.82,179l-.09,0-.23.1v76.26l.44,0V178.91Zm2.45-.71v76.91h.12V178.21Zm2.45-.39V255l.44,0V177.82Zm2.77-.08v77h.13v-77Zm2.45.31V254.6l.45,0V178.21Zm2.77,1.82v74.5h.13v-74.3ZM91.43,185l-.06-.12c-.06-.15-.13-.3-.2-.45v69.77l.44,0V185.4Zm2.51,69h.12V191.36l-.12-.3Zm2.65-55.77c0-.15-.11-.3-.16-.44s0-.08,0-.12v56.14l.44,0V198.92Zm2.63,7.68a.5.5,0,0,0,0-.13s0,0,0,0V253.6h.13V206.12C99.27,206.05,99.24,206,99.22,205.91Zm2.59,8c0-.15-.09-.29-.14-.44a1.17,1.17,0,0,0-.06-.2V253.4l.45,0V214.68C102,214.42,101.9,214.16,101.81,213.9Zm2.58,8.27v31h.12V222.57Zm2.45,8.19V253l.32,0h.12v-21C107.13,231.37,107,230.87,106.84,230.36Zm2.77,9.71v12.62h.12V240.5Zm2.7,10.4c0-.14-.06-.28-.1-.44s-.09-.41-.15-.64v3a3.27,3.27,0,0,0,.45-.1v-.85C112.46,251.19,112.4,250.86,112.31,250.47Zm-23.77-70.8H74.36l-.17.12H88.63Zm1.72,2.89H71.53c.11-.15.23-.29.35-.44H90C90.11,182.26,90.18,182.41,90.26,182.56ZM91.43,185H69.8a.83.83,0,0,0,.08-.12H91.37Zm1.2,2.78H68.19l.24-.45h24C92.51,187.49,92.57,187.64,92.63,187.79Zm1,2.45H66.94l.06-.13H93.57S93.6,190.2,93.62,190.24ZM94.68,193h-29c.06-.15.12-.29.19-.44H94.52C94.57,192.72,94.63,192.86,94.68,193Zm.91,2.45H64.66a.61.61,0,0,1,0-.12H95.55S95.58,195.42,95.59,195.46Zm1,2.77h-33c0-.15.1-.29.16-.44H96.43C96.48,197.93,96.54,198.08,96.59,198.23Zm.86,2.46H62.72s0-.09.05-.13H97.41A.65.65,0,0,0,97.45,200.69Zm1,2.77H61.8c.05-.15.09-.3.14-.45H98.25Zm.82,2.45H61a.65.65,0,0,0,0-.13h38.1A.5.5,0,0,1,99.22,205.91Zm.92,2.77H60.22a1.09,1.09,0,0,1,.05-.17,2.76,2.76,0,0,1,.08-.27H100Zm.79,2.45H59.54l0-.12h41.32S100.92,211.09,100.93,211.13Zm.88,2.77h-43l.11-.44h42.75C101.72,213.61,101.77,213.75,101.81,213.9Zm.78,2.46H58.2l0-.13h44.32S102.58,216.31,102.59,216.36Zm.87,2.77H57.55c0-.15.07-.3.11-.45h45.66C103.36,218.83,103.41,219,103.46,219.13Zm.75,2.45H57l0-.12h47.13A.56.56,0,0,1,104.21,221.58Zm.84,2.77H56.45l.09-.44h48.38C105,224.06,105,224.21,105.05,224.35Zm.73,2.45H56s0-.08,0-.12h49.73Zm.83,2.77H55.55c0-.15.05-.29.07-.44h50.86C106.52,229.28,106.56,229.43,106.61,229.57Zm.72,2.46H55.14a.51.51,0,0,0,0-.13h52.13A.65.65,0,0,0,107.33,232Zm.79,2.77H54.68c0-.14,0-.29.08-.44H108Zm.71,2.45H54.28a.5.5,0,0,0,0-.12h54.49A.56.56,0,0,0,108.83,237.25Zm.77,2.77H53.82c0-.15,0-.29.08-.44h55.57C109.52,239.73,109.56,239.88,109.6,240Zm.67,2.45H53.42s0-.08,0-.12h56.8Zm.75,2.78H53c0-.14,0-.29.08-.45H110.9Zm.63,2.45H52.58a.59.59,0,0,1,0-.13h59Zm.66,2.77H52.15V250h60.06C112.25,250.19,112.28,250.33,112.31,250.47Zm-3.85,2.33-1.18.11H51.79a.5.5,0,0,0,0-.12Zm-31.59,2.45-.93.07-.44,0-2.33.16H73l-2.32.16H51.48c0-.13,0-.28,0-.44Z" style="fill:#fff;opacity:0.3"></path><path d="M73.18,255.51c-11.77.83-21.61,1.46-21.67,1.4-.54-.53,2-14.91,4.38-29.44,1.37-8.57,7.7-36.74,17-46.53Z" style="fill:#263238"></path><path d="M89.74,181.91s0,0,0,0c.35,2.73,1,9.07-3.32,9a9.2,9.2,0,0,1-4.79-2,24.09,24.09,0,0,1-3.9-3.45A35.65,35.65,0,0,1,74,181c0-.07-.15,0-.1.08,1.13,1.6,2.1,3.29,3.39,4.78a21.05,21.05,0,0,0,4.22,3.83,9.12,9.12,0,0,0,5.08,1.9,3.48,3.48,0,0,0,3.35-2.85A15.42,15.42,0,0,0,89.74,181.91Z" style="fill:#263238"></path><polygon points="100.35 262.73 134.41 268.55 149.07 221.46 115.02 215.64 100.35 262.73" style="fill:#a6a6a6"></polygon><polygon points="102.03 263.02 136.08 268.83 150.74 221.74 116.69 215.93 102.03 263.02" style="fill:#dbdbdb"></polygon><path d="M131.22,241a3.74,3.74,0,0,1-4.17,2.7,3,3,0,0,1-2.46-3.83,3.74,3.74,0,0,1,4.17-2.69A3,3,0,0,1,131.22,241Z" style="fill:#fff"></path><path d="M69.21,184.31c-10.32,13.39-33.81,48.78-27.55,56C52,252.25,77.16,262.73,85,265.09c3.4,1,15.48-23.72,12.27-25.75-3.84-2.44-29.2-10.68-29.07-13,.08-1.32,3.41-15.47,6.1-29.57C77.45,180.42,72.74,179.72,69.21,184.31Z" style="fill:#dd6a57"></path><path d="M84.93,237.61s10.35-3,17.21-4.7c3.83-.93,10.54-1.94,13.66-1.34,4.68.9,23.65,7.66,22.11,12.3-1.39,4.2-17-3.68-17-3.68s16.4,6.56,13.8,11.3-19-6.49-19-6.49,16.7,7.12,13.24,11.59c-2.62,3.37-18-6-18-6s14.31,6.22,11.77,9.8c-2.81,4-17.59-3.76-17.59-3.76-8,8-15.09,8.58-20.18,8.38C83.72,265,84.93,237.61,84.93,237.61Z" style="fill:#dd6a57"></path><path d="M116.19,237.89c12.46,3.91,17.37,9.64,17.21,9.52-3.81-3-10.52-6.2-12.41-7.08s-2.95-1.5-4.83-2.37C116.11,237.94,116.15,237.88,116.19,237.89Z" style="fill:#263238"></path><path d="M112.15,244.31A44.32,44.32,0,0,1,126.41,251c.16.12.06.16-.12.07-2.37-1.18-11.75-5.62-14.17-6.67A0,0,0,0,1,112.15,244.31Z" style="fill:#263238"></path><path d="M108.3,249.6a33,33,0,0,1,10.88,5.48c.17.12,0,.17-.16.07-3.58-1.89-6.38-3.39-10.77-5.42C108.18,249.7,108.22,249.57,108.3,249.6Z" style="fill:#263238"></path><path d="M82.21,232.44l-13,28.32s-27.58-13.2-29.5-23.34,23-45.93,27.75-51.77c1.34-1.65,5-5.4,6.79-5,2,.49,1.82,3.44,1.72,10.29-.14,9.12-7.25,34.21-6.7,35.23S82.21,232.44,82.21,232.44Z" style="fill:#FFC727"></path><path d="M41.83,227.51V241.8l-.13-.18V227.83C41.74,227.72,41.78,227.62,41.83,227.51Zm2.72-5.93c-.14.27-.27.54-.4.8v22.06l.37.36.08.08v-23.4Zm2.38-4.52V247l.12.1V216.84Zm2.45-4.35v36.2l.44.33V212C49.68,212.21,49.53,212.46,49.38,212.71Zm2.77-4.62V250.9l.12.09v-43.1Zm2.45-3.92v48.37l.4.26,0,0V203.47Zm2.77-4.28v54.39l.13.08V199.69Zm2.46-3.69v59.55l.44.26V195.56Zm2.77,61.12.12.07V192l-.12.17Zm2.45-68.55v69.88l.44.24V188.17Zm2.77-3.59v74.91l.12.06v-75.1A.74.74,0,0,0,67.82,185.18Zm2.62-2.62-.17.15v37.75c.1-.42.2-.87.31-1.33,0-.15.07-.3.1-.45a1.16,1.16,0,0,0,0-.18V182.33Zm-.17,75.81.1-.22.06-.13.29-.63V227.21l-.45-.24ZM73,180.84v27.6c0-.07,0-.13,0-.2s0-.25.08-.38V180.79Zm0,71.52.13-.29V228.44l-.13-.06Zm2.58-22.79-.12,0V247l.44-.95V229.71Zm.1-47a2.55,2.55,0,0,0-.12-.44,1.69,1.69,0,0,0-.1-.27v13.82l0-.21s0-.08,0-.12c.12-.83.21-1.61.27-2.33,0-.15,0-.3,0-.44.05-.58.07-1.11.08-1.6,0-.22,0-.43,0-.64v-5.92A9.87,9.87,0,0,0,75.72,182.56Zm2.55,48.19V241l.12-.26V230.8Zm2.45,1.06v3.87l.4-.88,0-.08V232l-.22-.09ZM75.6,182.12H71l-.26.21-.28.23h5.28A2.55,2.55,0,0,0,75.6,182.12Zm-7.53,2.77L68,185h8v-.12Zm-2,2.45-.33.45H76v-.45Zm-2,2.77a.77.77,0,0,1-.09.13h12v-.13Zm-1.73,2.46L62,193H75.81c0-.15,0-.3,0-.44Zm-1.92,2.77-.08.12H75.53s0-.08,0-.12Zm-1.66,2.45c-.09.15-.19.29-.3.44H75.09c0-.15.06-.29.08-.44Zm-1.83,2.77-.09.13H74.65l0-.13ZM55.33,203c-.09.15-.18.3-.28.45h19a3.58,3.58,0,0,0,.09-.45Zm-1.75,2.77-.08.13H73.59l0-.13Zm-1.52,2.46-.27.44H73a2.1,2.1,0,0,0,.06-.24c0-.07,0-.13,0-.2ZM50.38,211a.75.75,0,0,1-.07.12H72.44a.53.53,0,0,1,0-.12ZM49,213.46l-.25.44H71.8c0-.15.07-.3.1-.44Zm-1.57,2.77-.07.13H71.23a.31.31,0,0,1,0-.13Zm-1.33,2.45c-.08.15-.16.3-.23.45H70.58c0-.15.07-.3.1-.45Zm-1.45,2.78v0l-.05.1H70l0-.12Zm-1.18,2.45c-.08.15-.14.3-.21.44H69.43c0-.14.06-.28.09-.44Zm26.39,2.77H42.18l-.06.12H70Zm5.69,2.84-.85-.39H41.19c0,.15-.1.29-.16.44H75.62ZM81.16,232l-.22-.09H40.28a.79.79,0,0,0,0,.13h41Zm-41.44,2.37c0,.15,0,.3-.06.44H81.12l0-.08.17-.36Zm-.09,2.77a.25.25,0,0,0,0,.12H80l0-.12Zm.8,2.45c.07.15.15.3.23.44H78.72l.2-.44Zm1.84,2.77a.94.94,0,0,0,.09.12H77.59l.06-.12Zm2.25,2.45.08.08.39.37H76.31l.21-.45Zm3.15,2.77.16.13H75.18l.06-.13ZM50.9,250l.63.44H73.91l.2-.44ZM55,252.8l0,0,.15.09H72.78l.06-.12Zm4,2.45.73.44H71.5l.21-.44ZM63.87,258l.24.13h6.26l.06-.13Zm4.7,2.45.6.29.13-.29Z" style="fill:#fff;opacity:0.3"></path><path d="M66.22,255.15c.61-.91,1-1.93,1.55-2.89s1-1.94,1.47-2.92q1.37-2.84,2.67-5.7c.87-1.91,1.75-3.82,2.61-5.73s1.91-3.95,2.65-6a.07.07,0,0,0-.13-.07c-1.11,1.87-2,3.9-2.93,5.85s-1.88,3.85-2.81,5.77-1.85,3.86-2.75,5.8c-.44,1-.86,1.92-1.26,2.89s-.9,1.93-1.2,2.94C66.06,255.18,66.18,255.21,66.22,255.15Z" style="fill:#263238"></path><path d="M82.09,232.43c-.92-.58-9.39-5.26-12.67-6.14a.08.08,0,0,0-.07.14c3.07,2.27,11.68,5.85,12.7,6.14C82.14,232.59,82.16,232.47,82.09,232.43Z" style="fill:#263238"></path><path d="M86.41,188c-3.07.51-8.6-4.88-10.41-8.76-.12-.27.45-3,1-6.24.32-2,.63-4.23.77-6.29,0-.42,1.41.45,1.41.45l2.62.82,8.67,2.71a33.12,33.12,0,0,0-1.77,7.82,4.71,4.71,0,0,0,0,.85s0,.09,0,.15C88.89,181.1,89.38,187.46,86.41,188Z" style="fill:#dd6a57"></path><path d="M88.73,179.33s0,.09,0,.15a8.55,8.55,0,0,1-1.33,0c-8.68-.77-9-11.89-9-11.89l3.42.38,8.67,2.71a33.12,33.12,0,0,0-1.77,7.82A4.71,4.71,0,0,0,88.73,179.33Z" style="fill:#263238"></path><path d="M91.41,147.34s4.07,1.21,5.19,5.1.66,8.14.33,8.37S91.41,147.34,91.41,147.34Z" style="fill:#263238"></path><path d="M74.68,154.15c-.85,4.72,3.12,17.59,6.71,20.14,5.2,3.69,12.94,3.18,15.88-2.89,2.85-5.89-2.62-22.57-6.55-24.81C84.92,143.3,75.93,147.17,74.68,154.15Z" style="fill:#dd6a57"></path><path d="M81.05,174.2h0" style="fill:none;stroke:#dd6a57;stroke-linecap:round;stroke-linejoin:round;stroke-width:0px"></path><path d="M88.24,161.21s-.06.06,0,.09c.29.86.48,1.9-.22,2.42,0,0,0,.06,0,.05C88.91,163.34,88.65,162,88.24,161.21Z" style="fill:#263238"></path><path d="M87.19,160.53c-1.43.32-.69,3.16.63,2.86S88.38,160.27,87.19,160.53Z" style="fill:#263238"></path><path d="M93.59,159.68s.08,0,.09.06c.2.89.58,1.87,1.45,1.95,0,0,0,.05,0,.05C94.13,161.86,93.64,160.55,93.59,159.68Z" style="fill:#263238"></path><path d="M94.13,158.56c1.39-.47,2.24,2.33,1,2.77S93,159,94.13,158.56Z" style="fill:#263238"></path><path d="M85.73,159.53c.36-.2.66-.44,1-.67s.71-.43.88-.88a.61.61,0,0,0-.28-.7,1.54,1.54,0,0,0-1.54.23,2.29,2.29,0,0,0-1,1.28A.66.66,0,0,0,85.73,159.53Z" style="fill:#263238"></path><path d="M94.86,156.85a9.61,9.61,0,0,1-1.2,0,1.93,1.93,0,0,1-1.23-.23.63.63,0,0,1-.16-.74,1.56,1.56,0,0,1,1.41-.67,2.24,2.24,0,0,1,1.55.49A.66.66,0,0,1,94.86,156.85Z" style="fill:#263238"></path><path d="M89.54,169.26c.26.15.55.38.87.32a2.29,2.29,0,0,0,.89-.46,0,0,0,0,1,0,0,1.22,1.22,0,0,1-1,.77,1,1,0,0,1-.89-.6S89.5,169.24,89.54,169.26Z" style="fill:#263238"></path><path d="M89.78,166.39a3.07,3.07,0,0,0,2.34.81,3.72,3.72,0,0,0,1.09-.23l.2-.08a.71.71,0,0,0,.18-.08.23.23,0,0,0,.13-.24h0a.13.13,0,0,0,0-.08h0l0-.08c-.16-.68-.49-1.69-.49-1.69.28.06,1.68.3,1.57,0a45.79,45.79,0,0,0-3.52-8.74c0-.09-.19,0-.15.06.79,2.8,2.07,5.45,2.91,8.25a5.34,5.34,0,0,0-1.53-.06c-.08.05.68,1.94.73,2.25v0a4.26,4.26,0,0,1-3.34-.16C89.76,166.26,89.71,166.34,89.78,166.39Z" style="fill:#263238"></path><path d="M92.72,166.73a3.65,3.65,0,0,1-1.13,1.47,1.67,1.67,0,0,1-1,.32c-.75,0-.93-.64-.95-1.23a4,4,0,0,1,.1-.92A4.73,4.73,0,0,0,92.72,166.73Z" style="fill:#263238"></path><path d="M91.59,168.2a1.67,1.67,0,0,1-1,.32c-.75,0-.93-.64-.95-1.23A1.71,1.71,0,0,1,91.59,168.2Z" style="fill:#ff99ba"></path><path d="M78,165.3c1.55-.05,1.71-4.81,1.61-6.59-.09-1.56-1.19-6.25-1.23-6.58s7.49,1.9,10.66-.34,4.44-6.23,4-7.72-6.14-3.74-10-2.62-7.33,7.69-7.33,7.69a18.41,18.41,0,0,0,.91-2.83,4.38,4.38,0,0,0-2.08,3.57s-.27-2.35-.47-2.33-1.46,2.55-.54,3.83c0,0-1.54,2.66-1,4.82S76.14,165.36,78,165.3Z" style="fill:#263238"></path><path d="M91.24,150.19a12.68,12.68,0,0,1-2.92,2.34,8.46,8.46,0,0,1-4,.7,12.81,12.81,0,0,1-4-.83c-1.13-.42-2.22-1-3.38-1.35-.29-.08-.45.35-.23.52a13.48,13.48,0,0,0,8,2.51,7.69,7.69,0,0,0,6.56-3.87S91.26,150.17,91.24,150.19Z" style="fill:#263238"></path><path d="M78.77,164.53s-3.56-3.83-5.34-2.5,1.31,7.17,3.69,7.69A2.32,2.32,0,0,0,80,168.06Z" style="fill:#dd6a57"></path><path d="M74.36,163.68s0,.06,0,.06A5.87,5.87,0,0,1,77.86,167a1.27,1.27,0,0,0-1.94-.08s0,.09,0,.08a1.43,1.43,0,0,1,1.63.28,6.83,6.83,0,0,1,.92,1.15c.09.13.34,0,.26-.13l0,0C78.52,166.19,76.56,163.58,74.36,163.68Z" style="fill:#263238"></path><path d="M88.79,179.25l-3.15,7.59-9.37-9.75-2.72,3.06s9.09,15.44,9.16,14.75l3.22-6.54L90.41,193l-.23-11.48Z" style="fill:#ebebeb"></path><path d="M90.62,187.3c-.11-1.9-.16-3.81-.35-5.69,0-.07-.11-.1-.12,0-.41,1.82,0,9.06,0,10.8l0,0c-.19-.2-4.16-4.07-4.2-4-.69,1-3.06,5.79-3.22,6.23-1.44-2.45-6.95-11.37-8.66-13.69a.07.07,0,0,0-.12.06c1.27,2.59,8.57,14.59,8.68,14.56A74.49,74.49,0,0,0,86,188.61c.67.84,4.67,5.21,4.69,4.92A61.68,61.68,0,0,0,90.62,187.3Z" style="fill:#263238"></path></g></svg>