<?xml version="1.0" standalone="no"?>
<!DOCTYPE svg PUBLIC "-//W3C//DTD SVG 20010904//EN"
 "http://www.w3.org/TR/2001/REC-SVG-20010904/DTD/svg10.dtd">
<svg version="1.0" xmlns="http://www.w3.org/2000/svg"
 width="1438.000000pt" height="980.000000pt" viewBox="0 0 1438.000000 980.000000"
 preserveAspectRatio="xMidYMid meet">
<metadata>
Created by potrace 1.16, written by Peter Selinger 2001-2019
</metadata>
<g transform="translate(0.000000,980.000000) scale(0.100000,-0.100000)"
fill="#000000" stroke="none">
<path d="M2855 9789 c-163 -10 -288 -69 -397 -187 -31 -34 -96 -117 -145 -184
-48 -68 -230 -312 -403 -543 -335 -446 -536 -723 -594 -820 -31 -50 -36 -68
-36 -120 0 -113 64 -168 212 -185 48 -6 505 -10 1093 -10 909 1 1016 -1 1065
-16 170 -50 280 -159 326 -320 16 -54 17 -182 15 -1644 -1 -872 2 -1642 7
-1712 9 -117 12 -131 37 -164 55 -72 151 -92 240 -50 59 28 85 55 190 196 43
58 102 132 130 165 62 71 948 1210 1149 1476 303 400 300 390 297 1099 -1 411
1 510 14 585 35 203 127 310 308 362 39 11 140 17 397 23 340 8 405 15 520 51
71 23 175 85 225 134 28 27 140 174 250 325 257 356 528 717 602 804 32 37 64
80 72 94 8 14 67 97 132 184 77 102 122 173 130 200 25 95 -17 192 -104 236
l-47 25 -2798 1 c-1538 0 -2837 -2 -2887 -5z"/>
<path d="M465 2661 c-50 -23 -78 -53 -107 -116 -20 -44 -23 -66 -23 -175 0
-159 7 -173 167 -337 65 -68 126 -139 133 -158 34 -80 7 -182 -52 -199 -69
-19 -103 37 -103 172 l0 72 -80 0 -80 0 0 -87 c0 -170 43 -273 132 -317 128
-64 272 -12 328 117 31 71 39 226 16 314 -22 87 -51 128 -171 245 -117 113
-151 167 -142 225 7 41 42 83 69 83 55 0 88 -54 88 -145 l0 -55 80 0 80 0 0
33 c-1 110 -37 236 -83 286 -34 37 -95 61 -157 61 -32 0 -71 -8 -95 -19z"/>
<path d="M1082 2667 c-71 -27 -130 -112 -152 -222 -18 -88 -25 -512 -10 -636
19 -169 67 -260 155 -300 46 -21 135 -25 186 -8 71 24 129 101 157 209 19 75
28 525 13 654 -18 155 -58 244 -129 288 -42 26 -168 35 -220 15z m133 -173
c28 -11 45 -61 56 -171 13 -120 6 -504 -10 -566 -24 -97 -114 -118 -156 -37
-25 48 -38 236 -31 455 6 210 15 266 49 303 20 22 59 28 92 16z"/>
<path d="M3655 2669 c-40 -11 -91 -62 -120 -119 -44 -87 -50 -145 -50 -465 0
-320 6 -379 50 -465 45 -87 113 -130 210 -130 144 0 221 87 251 283 20 131 14
600 -8 687 -29 110 -89 191 -157 210 -43 12 -134 12 -176 -1z m139 -185 c30
-29 37 -53 47 -166 13 -132 5 -504 -12 -563 -32 -113 -136 -112 -169 1 -16 58
-24 430 -11 562 14 146 33 182 96 182 18 0 41 -7 49 -16z"/>
<path d="M4889 2657 c-89 -47 -136 -164 -126 -314 7 -124 32 -168 181 -322
136 -141 143 -154 134 -253 -6 -58 -40 -98 -82 -98 -56 0 -86 68 -86 196 l0
54 -81 0 -82 0 6 -107 c7 -135 28 -204 82 -259 48 -50 104 -69 187 -61 148 13
219 117 219 322 0 170 -34 242 -178 373 -110 101 -143 150 -143 214 0 39 5 54
25 73 57 58 111 16 127 -99 l11 -76 75 0 75 0 -6 88 c-12 193 -94 292 -240
292 -37 0 -68 -7 -98 -23z"/>
<path d="M9569 2667 c-52 -20 -80 -41 -110 -87 -46 -69 -61 -160 -67 -401 -7
-326 17 -520 76 -603 47 -67 73 -81 157 -81 87 0 118 17 153 85 l22 44 0 -52
0 -52 60 0 60 0 0 310 0 310 -130 0 -130 0 0 -95 0 -95 51 0 52 0 -5 -89 c-6
-104 -28 -159 -72 -180 -39 -18 -74 0 -99 52 -29 58 -42 296 -29 512 13 213
30 255 103 255 29 0 43 -6 62 -30 26 -30 31 -46 42 -132 l6 -48 76 0 76 0 -7
78 c-15 162 -46 234 -122 278 -55 33 -166 43 -225 21z"/>
<path d="M13746 2666 c-81 -30 -131 -106 -157 -236 -21 -102 -17 -559 4 -679
18 -97 45 -171 75 -205 26 -29 92 -56 140 -56 74 0 122 29 156 95 16 30 16 30
16 5 1 -62 8 -70 66 -70 l54 0 0 310 0 310 -130 0 -130 0 0 -95 0 -95 51 0 51
0 -4 -97 c-4 -110 -22 -154 -70 -174 -42 -17 -75 1 -101 59 -21 45 -22 60 -22
332 0 317 5 371 40 406 32 32 87 32 119 1 24 -24 46 -101 46 -157 l0 -30 76 0
77 0 -6 88 c-13 203 -84 291 -242 299 -45 2 -84 -2 -109 -11z"/>
<path d="M1560 2085 l0 -565 215 0 215 0 0 100 0 100 -135 0 -135 0 0 465 0
465 -80 0 -80 0 0 -565z"/>
<path d="M2040 2238 c1 -545 9 -610 84 -684 50 -51 105 -68 196 -62 111 8 177
57 217 159 15 39 18 97 21 522 l3 477 -80 0 -81 0 -1 -427 c-1 -465 -4 -501
-51 -536 -23 -17 -34 -19 -65 -11 -30 7 -42 17 -58 49 -19 38 -20 64 -23 483
l-4 442 -79 0 -79 0 0 -412z"/>
<path d="M2630 2555 l0 -95 85 0 85 0 0 -470 0 -470 80 0 80 0 0 470 0 470 90
0 90 0 0 95 0 95 -255 0 -255 0 0 -95z"/>
<path d="M3210 2085 l0 -565 80 0 80 0 0 565 0 565 -80 0 -80 0 0 -565z"/>
<path d="M4130 2085 l0 -565 77 0 76 0 -6 370 c-4 204 -6 370 -4 370 2 0 48
-166 103 -370 l99 -370 83 0 82 0 0 565 0 565 -75 0 -75 0 -2 -362 -3 -363
-96 360 -96 360 -81 3 -82 3 0 -566z"/>
<path d="M5580 2643 c0 -4 34 -259 77 -565 l77 -558 96 0 95 0 40 333 40 332
11 -75 c6 -41 26 -191 44 -332 l33 -258 94 0 c88 0 93 1 98 23 3 12 34 249 70
527 36 278 68 522 71 543 l6 37 -84 0 -83 0 -40 -407 c-22 -225 -41 -399 -44
-388 -2 11 -27 193 -55 405 l-52 385 -67 3 c-62 3 -67 1 -71 -20 -3 -13 -24
-176 -46 -363 -22 -187 -44 -355 -48 -374 -5 -24 -20 80 -52 360 l-45 394 -83
3 c-45 2 -82 -1 -82 -5z"/>
<path d="M6510 2085 l0 -565 80 0 80 0 0 565 0 565 -80 0 -80 0 0 -565z"/>
<path d="M6740 2555 l0 -95 85 0 85 0 0 -470 0 -470 80 0 80 0 0 470 0 470 90
0 90 0 0 95 0 95 -255 0 -255 0 0 -95z"/>
<path d="M7320 2085 l0 -565 80 0 80 0 0 255 0 255 95 0 95 0 0 -255 0 -255
80 0 80 0 0 565 0 565 -80 0 -80 0 0 -220 0 -220 -95 0 -95 0 0 220 0 220 -80
0 -80 0 0 -565z"/>
<path d="M8230 2085 l0 -565 215 0 215 0 0 100 0 100 -135 0 -135 0 0 150 0
150 125 0 125 0 0 95 0 95 -125 0 -125 0 0 125 0 125 135 0 135 0 0 95 0 95
-215 0 -215 0 0 -565z"/>
<path d="M8760 2085 l0 -565 75 0 75 0 2 368 3 367 23 -85 c12 -47 57 -212 99
-367 l76 -283 83 0 84 0 0 565 0 565 -77 0 -78 0 3 -367 c2 -203 2 -366 -1
-363 -3 3 -46 160 -96 350 -51 190 -94 353 -97 363 -5 14 -18 17 -90 17 l-84
0 0 -565z"/>
<path d="M10040 2085 l0 -565 80 0 80 0 0 565 0 565 -80 0 -80 0 0 -565z"/>
<path d="M10330 2085 l0 -565 75 0 75 0 2 358 3 357 95 -355 96 -355 82 -3 82
-3 0 566 0 565 -75 0 -75 0 -1 -362 0 -363 -97 360 -97 360 -83 3 -82 3 0
-566z"/>
<path d="M10970 2085 l0 -565 215 0 215 0 0 100 0 100 -135 0 -135 0 0 150 0
150 125 0 125 0 0 95 0 95 -125 0 -125 0 0 125 0 125 135 0 135 0 0 95 0 95
-215 0 -215 0 0 -565z"/>
<path d="M11500 2085 l0 -565 215 0 215 0 0 100 0 100 -135 0 -135 0 0 150 0
150 125 0 125 0 0 95 0 95 -125 0 -125 0 0 125 0 125 135 0 135 0 0 95 0 95
-215 0 -215 0 0 -565z"/>
<path d="M12040 2085 l0 -565 75 0 75 0 0 245 0 245 49 0 c127 0 142 -27 148
-260 2 -91 6 -180 9 -197 l5 -33 93 0 93 0 -17 53 c-12 35 -20 103 -24 215 -8
183 -22 245 -65 286 l-30 28 29 25 c43 36 64 110 64 228 -1 162 -41 252 -127
284 -16 6 -104 11 -203 11 l-174 0 0 -565z m298 384 c34 -21 44 -61 41 -154
-4 -81 -6 -88 -32 -111 -23 -20 -39 -24 -93 -24 l-64 0 0 156 0 157 63 -5 c35
-3 73 -11 85 -19z"/>
<path d="M12660 2085 l0 -565 80 0 80 0 0 565 0 565 -80 0 -80 0 0 -565z"/>
<path d="M12950 2085 l0 -565 76 0 77 0 -5 378 -5 377 41 -155 c23 -85 69
-255 102 -377 l59 -223 83 0 82 0 0 565 0 565 -75 0 -75 0 -2 -361 -3 -361
-96 359 -96 358 -81 3 -82 3 0 -566z"/>
<path d="M0 361 l0 -361 295 0 c162 0 295 2 295 4 0 8 -572 711 -581 714 -5 2
-9 -142 -9 -357z"/>
<path d="M14085 373 c-154 -190 -284 -352 -288 -359 -7 -12 41 -14 288 -14
l295 0 0 360 c0 198 -3 360 -7 360 -5 0 -134 -156 -288 -347z"/>
</g>
</svg>
